<svg width="48" height="48" viewBox="0 0 23 16" fill="none" xmlns="http://www.w3.org/2000/svg">
<path d="M22.6853 7.69625C22.6525 7.62219 21.8584 5.86062 20.0931 4.09531C17.7409 1.74312 14.77 0.5 11.5 0.5C8.22999 0.5 5.25905 1.74312 2.90687 4.09531C1.14155 5.86062 0.343741 7.625 0.314679 7.69625C0.272035 7.79217 0.25 7.89597 0.25 8.00094C0.25 8.10591 0.272035 8.20971 0.314679 8.30562C0.347491 8.37969 1.14155 10.1403 2.90687 11.9056C5.25905 14.2569 8.22999 15.5 11.5 15.5C14.77 15.5 17.7409 14.2569 20.0931 11.9056C21.8584 10.1403 22.6525 8.37969 22.6853 8.30562C22.7279 8.20971 22.75 8.10591 22.75 8.00094C22.75 7.89597 22.7279 7.79217 22.6853 7.69625ZM11.5 14C8.61437 14 6.09343 12.9509 4.00655 10.8828C3.15028 10.0313 2.42179 9.06027 1.84374 8C2.42164 6.93963 3.15014 5.9686 4.00655 5.11719C6.09343 3.04906 8.61437 2 11.5 2C14.3856 2 16.9066 3.04906 18.9934 5.11719C19.8514 5.9684 20.5815 6.93942 21.1609 8C20.485 9.26188 17.5403 14 11.5 14ZM11.5 3.5C10.61 3.5 9.73995 3.76392 8.99993 4.25839C8.2599 4.75285 7.68313 5.45566 7.34253 6.27792C7.00194 7.10019 6.91282 8.00499 7.08646 8.87791C7.26009 9.75082 7.68867 10.5526 8.31801 11.182C8.94735 11.8113 9.74917 12.2399 10.6221 12.4135C11.495 12.5872 12.3998 12.4981 13.2221 12.1575C14.0443 11.8169 14.7471 11.2401 15.2416 10.5001C15.7361 9.76005 16 8.89002 16 8C15.9988 6.80691 15.5242 5.66303 14.6806 4.81939C13.837 3.97575 12.6931 3.50124 11.5 3.5ZM11.5 11C10.9066 11 10.3266 10.8241 9.83328 10.4944C9.33993 10.1648 8.95542 9.69623 8.72835 9.14805C8.50129 8.59987 8.44188 7.99667 8.55764 7.41473C8.67339 6.83279 8.95911 6.29824 9.37867 5.87868C9.79823 5.45912 10.3328 5.1734 10.9147 5.05764C11.4967 4.94189 12.0999 5.0013 12.648 5.22836C13.1962 5.45542 13.6648 5.83994 13.9944 6.33329C14.324 6.82664 14.5 7.40666 14.5 8C14.5 8.79565 14.1839 9.55871 13.6213 10.1213C13.0587 10.6839 12.2956 11 11.5 11Z" fill="#A1A1A1"/>
</svg>
