<svg width="26" height="22" viewBox="0 0 26 22" fill="none" xmlns="http://www.w3.org/2000/svg">
<path d="M24 0.25H2C1.53587 0.25 1.09075 0.434375 0.762563 0.762563C0.434375 1.09075 0.25 1.53587 0.25 2V20C0.25 20.4641 0.434375 20.9092 0.762563 21.2374C1.09075 21.5656 1.53587 21.75 2 21.75H24C24.4641 21.75 24.9092 21.5656 25.2374 21.2374C25.5656 20.9092 25.75 20.4641 25.75 20V2C25.75 1.53587 25.5656 1.09075 25.2374 0.762563C24.9092 0.434375 24.4641 0.25 24 0.25ZM2 1.75H24C24.0663 1.75 24.1299 1.77634 24.1768 1.82322C24.2237 1.87011 24.25 1.9337 24.25 2V15.4463L20.5662 11.7625C20.4037 11.6 20.2108 11.4711 19.9985 11.3831C19.7862 11.2951 19.5586 11.2499 19.3288 11.2499C19.0989 11.2499 18.8713 11.2951 18.659 11.3831C18.4467 11.4711 18.2538 11.6 18.0912 11.7625L15.4137 14.44L9.7375 8.7625C9.575 8.59998 9.38207 8.47106 9.16974 8.3831C8.95741 8.29515 8.72983 8.24987 8.5 8.24987C8.27017 8.24987 8.04259 8.29515 7.83026 8.3831C7.61793 8.47106 7.425 8.59998 7.2625 8.7625L1.75 14.275V2C1.75 1.9337 1.77634 1.87011 1.82322 1.82322C1.87011 1.77634 1.9337 1.75 2 1.75ZM1.75 20V16.3962L8.3225 9.82375C8.34574 9.80032 8.37339 9.78172 8.40386 9.76903C8.43432 9.75633 8.467 9.7498 8.5 9.7498C8.533 9.7498 8.56568 9.75633 8.59614 9.76903C8.62661 9.78172 8.65426 9.80032 8.6775 9.82375L19.1038 20.25H2C1.9337 20.25 1.87011 20.2237 1.82322 20.1768C1.77634 20.1299 1.75 20.0663 1.75 20ZM24 20.25H21.225L16.475 15.5L19.1513 12.8225C19.1745 12.7993 19.202 12.7808 19.2324 12.7682C19.2627 12.7557 19.2953 12.7492 19.3281 12.7492C19.361 12.7492 19.3935 12.7557 19.4239 12.7682C19.4542 12.7808 19.4818 12.7993 19.505 12.8225L24.255 17.5725V20C24.255 20.0333 24.2484 20.0662 24.2355 20.0968C24.2226 20.1275 24.2038 20.1553 24.18 20.1786C24.1563 20.2018 24.1281 20.2202 24.0972 20.2324C24.0663 20.2447 24.0332 20.2507 24 20.25ZM15.25 7.5C15.25 7.25277 15.3233 7.0111 15.4607 6.80554C15.598 6.59998 15.7932 6.43976 16.0216 6.34515C16.2501 6.25054 16.5014 6.22579 16.7439 6.27402C16.9863 6.32225 17.2091 6.4413 17.3839 6.61612C17.5587 6.79093 17.6777 7.01366 17.726 7.25614C17.7742 7.49861 17.7495 7.74995 17.6549 7.97835C17.5602 8.20676 17.4 8.40199 17.1945 8.53934C16.9889 8.67669 16.7472 8.75 16.5 8.75C16.1685 8.75 15.8505 8.6183 15.6161 8.38388C15.3817 8.14946 15.25 7.83152 15.25 7.5Z" fill="#D4D4D4"/>
</svg>
