<svg width="18" height="16" viewBox="0 0 18 16" fill="none" xmlns="http://www.w3.org/2000/svg">
<path d="M13.2158 10.9342C13.6057 10.668 14.0629 10.5176 14.5346 10.5004C15.0064 10.4832 15.4733 10.5999 15.8815 10.837C16.2897 11.0741 16.6224 11.422 16.8411 11.8403C17.0598 12.2586 17.1557 12.7303 17.1175 13.2008C16.1176 13.5503 15.0556 13.6863 14 13.6C13.9968 12.6555 13.7248 11.7306 13.2158 10.935C12.7641 10.2265 12.1409 9.64336 11.404 9.23959C10.6671 8.83581 9.84028 8.62443 9 8.625C8.15986 8.62457 7.33319 8.83602 6.59644 9.23979C5.85969 9.64356 5.23667 10.2266 4.785 10.935M13.9992 13.5992L14 13.625C14 13.8125 13.99 13.9975 13.9692 14.18C12.457 15.0476 10.7434 15.5028 9 15.5C7.19167 15.5 5.49417 15.02 4.03083 14.18C4.00941 13.9871 3.99911 13.7932 4 13.5992M4 13.5992C2.94469 13.6886 1.88326 13.5531 0.884167 13.2017C0.846126 12.7313 0.941996 12.2598 1.16069 11.8416C1.37939 11.4234 1.71197 11.0757 2.12 10.8386C2.52803 10.6015 2.99483 10.4847 3.46643 10.5018C3.93803 10.5188 4.39518 10.669 4.785 10.935M4 13.5992C4.00299 12.6548 4.27635 11.7307 4.785 10.935M11.5 3.625C11.5 4.28804 11.2366 4.92393 10.7678 5.39277C10.2989 5.86161 9.66304 6.125 9 6.125C8.33696 6.125 7.70107 5.86161 7.23223 5.39277C6.76339 4.92393 6.5 4.28804 6.5 3.625C6.5 2.96196 6.76339 2.32607 7.23223 1.85723C7.70107 1.38839 8.33696 1.125 9 1.125C9.66304 1.125 10.2989 1.38839 10.7678 1.85723C11.2366 2.32607 11.5 2.96196 11.5 3.625ZM16.5 6.125C16.5 6.37123 16.4515 6.61505 16.3573 6.84253C16.263 7.07002 16.1249 7.27672 15.9508 7.45083C15.7767 7.62494 15.57 7.76305 15.3425 7.85727C15.115 7.9515 14.8712 8 14.625 8C14.3788 8 14.135 7.9515 13.9075 7.85727C13.68 7.76305 13.4733 7.62494 13.2992 7.45083C13.1251 7.27672 12.987 7.07002 12.8927 6.84253C12.7985 6.61505 12.75 6.37123 12.75 6.125C12.75 5.62772 12.9475 5.15081 13.2992 4.79918C13.6508 4.44754 14.1277 4.25 14.625 4.25C15.1223 4.25 15.5992 4.44754 15.9508 4.79918C16.3025 5.15081 16.5 5.62772 16.5 6.125ZM5.25 6.125C5.25 6.37123 5.2015 6.61505 5.10727 6.84253C5.01305 7.07002 4.87494 7.27672 4.70083 7.45083C4.52672 7.62494 4.32002 7.76305 4.09253 7.85727C3.86505 7.9515 3.62123 8 3.375 8C3.12877 8 2.88495 7.9515 2.65747 7.85727C2.42998 7.76305 2.22328 7.62494 2.04918 7.45083C1.87507 7.27672 1.73695 7.07002 1.64273 6.84253C1.5485 6.61505 1.5 6.37123 1.5 6.125C1.5 5.62772 1.69754 5.15081 2.04918 4.79918C2.40081 4.44754 2.87772 4.25 3.375 4.25C3.87228 4.25 4.34919 4.44754 4.70083 4.79918C5.05246 5.15081 5.25 5.62772 5.25 6.125Z" stroke="#009966" stroke-linecap="round" stroke-linejoin="round"/>
</svg>
